<mxfile host="app.diagrams.net" modified="2022-09-04T08:09:27.194Z" agent="5.0 (Macintosh; Intel Mac OS X 10_15_7) AppleWebKit/537.36 (KHTML, like Gecko) Chrome/104.0.0.0 Safari/537.36" etag="Kh4Ysl3vBGndr7EHD_cB" version="20.2.8" type="github">
  <diagram id="5HxByOv4FMeEe46C06F6" name="Page-1">
    <mxGraphModel dx="1426" dy="794" grid="1" gridSize="10" guides="1" tooltips="1" connect="1" arrows="1" fold="1" page="1" pageScale="1" pageWidth="850" pageHeight="1100" math="0" shadow="0">
      <root>
        <mxCell id="0" />
        <mxCell id="1" parent="0" />
        <mxCell id="0S2Pw86vDBwkn5OkXsG3-1" value="Rollup" style="rounded=1;whiteSpace=wrap;html=1;" vertex="1" parent="1">
          <mxGeometry x="40" y="180" width="120" height="60" as="geometry" />
        </mxCell>
        <mxCell id="0S2Pw86vDBwkn5OkXsG3-2" value="Rollup" style="rounded=1;whiteSpace=wrap;html=1;" vertex="1" parent="1">
          <mxGeometry x="240" y="180" width="120" height="60" as="geometry" />
        </mxCell>
        <mxCell id="0S2Pw86vDBwkn5OkXsG3-3" value="Rollup" style="rounded=1;whiteSpace=wrap;html=1;" vertex="1" parent="1">
          <mxGeometry x="440" y="180" width="120" height="60" as="geometry" />
        </mxCell>
        <mxCell id="0S2Pw86vDBwkn5OkXsG3-4" value="Rollup" style="rounded=1;whiteSpace=wrap;html=1;" vertex="1" parent="1">
          <mxGeometry x="640" y="180" width="120" height="60" as="geometry" />
        </mxCell>
        <mxCell id="0S2Pw86vDBwkn5OkXsG3-5" value="Beacon Chain &amp;amp; validator" style="rounded=0;whiteSpace=wrap;html=1;" vertex="1" parent="1">
          <mxGeometry x="40" y="340" width="720" height="100" as="geometry" />
        </mxCell>
        <mxCell id="0S2Pw86vDBwkn5OkXsG3-6" value="" style="endArrow=classic;html=1;rounded=0;exitX=0.5;exitY=1;exitDx=0;exitDy=0;entryX=0.5;entryY=0;entryDx=0;entryDy=0;" edge="1" parent="1" source="0S2Pw86vDBwkn5OkXsG3-1" target="0S2Pw86vDBwkn5OkXsG3-5">
          <mxGeometry width="50" height="50" relative="1" as="geometry">
            <mxPoint x="375" y="470" as="sourcePoint" />
            <mxPoint x="425" y="420" as="targetPoint" />
          </mxGeometry>
        </mxCell>
        <mxCell id="0S2Pw86vDBwkn5OkXsG3-7" value="" style="endArrow=classic;html=1;rounded=0;exitX=0.5;exitY=1;exitDx=0;exitDy=0;entryX=0.5;entryY=0;entryDx=0;entryDy=0;" edge="1" parent="1" source="0S2Pw86vDBwkn5OkXsG3-2" target="0S2Pw86vDBwkn5OkXsG3-5">
          <mxGeometry width="50" height="50" relative="1" as="geometry">
            <mxPoint x="110" y="250" as="sourcePoint" />
            <mxPoint x="400" y="300" as="targetPoint" />
          </mxGeometry>
        </mxCell>
        <mxCell id="0S2Pw86vDBwkn5OkXsG3-8" value="" style="endArrow=classic;html=1;rounded=0;exitX=0.5;exitY=1;exitDx=0;exitDy=0;entryX=0.5;entryY=0;entryDx=0;entryDy=0;" edge="1" parent="1" source="0S2Pw86vDBwkn5OkXsG3-3" target="0S2Pw86vDBwkn5OkXsG3-5">
          <mxGeometry width="50" height="50" relative="1" as="geometry">
            <mxPoint x="310" y="250" as="sourcePoint" />
            <mxPoint x="410" y="310" as="targetPoint" />
          </mxGeometry>
        </mxCell>
        <mxCell id="0S2Pw86vDBwkn5OkXsG3-9" value="" style="endArrow=classic;html=1;rounded=0;exitX=0.5;exitY=1;exitDx=0;exitDy=0;entryX=0.5;entryY=0;entryDx=0;entryDy=0;" edge="1" parent="1" source="0S2Pw86vDBwkn5OkXsG3-4" target="0S2Pw86vDBwkn5OkXsG3-5">
          <mxGeometry width="50" height="50" relative="1" as="geometry">
            <mxPoint x="510" y="250" as="sourcePoint" />
            <mxPoint x="410" y="310" as="targetPoint" />
          </mxGeometry>
        </mxCell>
        <mxCell id="0S2Pw86vDBwkn5OkXsG3-10" value="Batch" style="text;html=1;strokeColor=none;fillColor=none;align=center;verticalAlign=middle;whiteSpace=wrap;rounded=0;" vertex="1" parent="1">
          <mxGeometry x="370" y="300" width="60" height="30" as="geometry" />
        </mxCell>
        <mxCell id="0S2Pw86vDBwkn5OkXsG3-11" value="shard" style="rounded=1;whiteSpace=wrap;html=1;" vertex="1" parent="1">
          <mxGeometry x="40" y="500" width="120" height="60" as="geometry" />
        </mxCell>
        <mxCell id="0S2Pw86vDBwkn5OkXsG3-12" value="shard" style="rounded=1;whiteSpace=wrap;html=1;" vertex="1" parent="1">
          <mxGeometry x="50" y="510" width="120" height="60" as="geometry" />
        </mxCell>
        <mxCell id="0S2Pw86vDBwkn5OkXsG3-13" value="shard" style="rounded=1;whiteSpace=wrap;html=1;" vertex="1" parent="1">
          <mxGeometry x="60" y="520" width="120" height="60" as="geometry" />
        </mxCell>
        <mxCell id="0S2Pw86vDBwkn5OkXsG3-14" value="shard" style="rounded=1;whiteSpace=wrap;html=1;" vertex="1" parent="1">
          <mxGeometry x="70" y="530" width="120" height="60" as="geometry" />
        </mxCell>
        <mxCell id="0S2Pw86vDBwkn5OkXsG3-15" value="shard" style="rounded=1;whiteSpace=wrap;html=1;" vertex="1" parent="1">
          <mxGeometry x="80" y="540" width="120" height="60" as="geometry" />
        </mxCell>
        <mxCell id="0S2Pw86vDBwkn5OkXsG3-16" value="shard" style="rounded=1;whiteSpace=wrap;html=1;" vertex="1" parent="1">
          <mxGeometry x="90" y="550" width="120" height="60" as="geometry" />
        </mxCell>
        <mxCell id="0S2Pw86vDBwkn5OkXsG3-17" value="shard" style="rounded=1;whiteSpace=wrap;html=1;" vertex="1" parent="1">
          <mxGeometry x="100" y="560" width="120" height="60" as="geometry" />
        </mxCell>
        <mxCell id="0S2Pw86vDBwkn5OkXsG3-18" value="shard" style="rounded=1;whiteSpace=wrap;html=1;" vertex="1" parent="1">
          <mxGeometry x="335" y="510" width="120" height="60" as="geometry" />
        </mxCell>
        <mxCell id="0S2Pw86vDBwkn5OkXsG3-19" value="shard" style="rounded=1;whiteSpace=wrap;html=1;" vertex="1" parent="1">
          <mxGeometry x="345" y="520" width="120" height="60" as="geometry" />
        </mxCell>
        <mxCell id="0S2Pw86vDBwkn5OkXsG3-20" value="shard" style="rounded=1;whiteSpace=wrap;html=1;" vertex="1" parent="1">
          <mxGeometry x="355" y="530" width="120" height="60" as="geometry" />
        </mxCell>
        <mxCell id="0S2Pw86vDBwkn5OkXsG3-21" value="shard" style="rounded=1;whiteSpace=wrap;html=1;" vertex="1" parent="1">
          <mxGeometry x="365" y="540" width="120" height="60" as="geometry" />
        </mxCell>
        <mxCell id="0S2Pw86vDBwkn5OkXsG3-22" value="shard" style="rounded=1;whiteSpace=wrap;html=1;" vertex="1" parent="1">
          <mxGeometry x="375" y="550" width="120" height="60" as="geometry" />
        </mxCell>
        <mxCell id="0S2Pw86vDBwkn5OkXsG3-23" value="shard" style="rounded=1;whiteSpace=wrap;html=1;" vertex="1" parent="1">
          <mxGeometry x="385" y="560" width="120" height="60" as="geometry" />
        </mxCell>
        <mxCell id="0S2Pw86vDBwkn5OkXsG3-24" value="shard" style="rounded=1;whiteSpace=wrap;html=1;" vertex="1" parent="1">
          <mxGeometry x="395" y="570" width="120" height="60" as="geometry" />
        </mxCell>
        <mxCell id="0S2Pw86vDBwkn5OkXsG3-25" value="shard" style="rounded=1;whiteSpace=wrap;html=1;" vertex="1" parent="1">
          <mxGeometry x="610" y="520" width="120" height="60" as="geometry" />
        </mxCell>
        <mxCell id="0S2Pw86vDBwkn5OkXsG3-26" value="shard" style="rounded=1;whiteSpace=wrap;html=1;" vertex="1" parent="1">
          <mxGeometry x="620" y="530" width="120" height="60" as="geometry" />
        </mxCell>
        <mxCell id="0S2Pw86vDBwkn5OkXsG3-27" value="shard" style="rounded=1;whiteSpace=wrap;html=1;" vertex="1" parent="1">
          <mxGeometry x="630" y="540" width="120" height="60" as="geometry" />
        </mxCell>
        <mxCell id="0S2Pw86vDBwkn5OkXsG3-28" value="shard" style="rounded=1;whiteSpace=wrap;html=1;" vertex="1" parent="1">
          <mxGeometry x="640" y="550" width="120" height="60" as="geometry" />
        </mxCell>
        <mxCell id="0S2Pw86vDBwkn5OkXsG3-29" value="shard" style="rounded=1;whiteSpace=wrap;html=1;" vertex="1" parent="1">
          <mxGeometry x="650" y="560" width="120" height="60" as="geometry" />
        </mxCell>
        <mxCell id="0S2Pw86vDBwkn5OkXsG3-30" value="shard" style="rounded=1;whiteSpace=wrap;html=1;" vertex="1" parent="1">
          <mxGeometry x="660" y="570" width="120" height="60" as="geometry" />
        </mxCell>
        <mxCell id="0S2Pw86vDBwkn5OkXsG3-31" value="shard" style="rounded=1;whiteSpace=wrap;html=1;" vertex="1" parent="1">
          <mxGeometry x="670" y="580" width="120" height="60" as="geometry" />
        </mxCell>
        <mxCell id="0S2Pw86vDBwkn5OkXsG3-32" value="" style="endArrow=classic;html=1;rounded=0;exitX=0.5;exitY=1;exitDx=0;exitDy=0;entryX=0.5;entryY=0;entryDx=0;entryDy=0;" edge="1" parent="1" source="0S2Pw86vDBwkn5OkXsG3-5" target="0S2Pw86vDBwkn5OkXsG3-11">
          <mxGeometry width="50" height="50" relative="1" as="geometry">
            <mxPoint x="400" y="430" as="sourcePoint" />
            <mxPoint x="450" y="380" as="targetPoint" />
          </mxGeometry>
        </mxCell>
        <mxCell id="0S2Pw86vDBwkn5OkXsG3-33" value="" style="endArrow=classic;html=1;rounded=0;exitX=0.5;exitY=1;exitDx=0;exitDy=0;entryX=0.5;entryY=0;entryDx=0;entryDy=0;" edge="1" parent="1" source="0S2Pw86vDBwkn5OkXsG3-5" target="0S2Pw86vDBwkn5OkXsG3-18">
          <mxGeometry width="50" height="50" relative="1" as="geometry">
            <mxPoint x="410" y="450" as="sourcePoint" />
            <mxPoint x="110" y="510" as="targetPoint" />
          </mxGeometry>
        </mxCell>
        <mxCell id="0S2Pw86vDBwkn5OkXsG3-35" value="" style="endArrow=classic;html=1;rounded=0;exitX=0.5;exitY=1;exitDx=0;exitDy=0;entryX=0.5;entryY=0;entryDx=0;entryDy=0;" edge="1" parent="1" source="0S2Pw86vDBwkn5OkXsG3-5" target="0S2Pw86vDBwkn5OkXsG3-25">
          <mxGeometry width="50" height="50" relative="1" as="geometry">
            <mxPoint x="410" y="450" as="sourcePoint" />
            <mxPoint x="405" y="520" as="targetPoint" />
          </mxGeometry>
        </mxCell>
      </root>
    </mxGraphModel>
  </diagram>
</mxfile>
